# xmcd
#
# Track frame offsets: 
#        150
#        23932
#        37654
#        52050
#        67039
#        83102
#        98681
#        116785
#        137442
#        151652
#        169769
#        186768
#        199980
#        213042
#
# Disc length: 3290 seconds
#
# Revision: 0
# Processed by: cddbd v1.5.2PL0 Copyright (c) Steve Scherf et al.
# Submitted via: ExactAudioCopy v0.99pb5
#
DISCID=b50cd80e
DTITLE=Lonnie Donegan - Puttin' On The Style (Expanded Edition)
DYEAR=1977
DGENRE=Country
TTITLE0=Rock Island Line
TTITLE1=Have A Drink On Me
TTITLE2=Ham 'n' Eggs
TTITLE3=I Wanna Go Home
TTITLE4=Diggin' My Potatoes
TTITLE5=Nobody's Child
TTITLE6=Puttin' On The Style
TTITLE7=Frankie and Johnny
TTITLE8=Drop Down Baby
TTITLE9=Lost John
TTITLE10=The Grand Coulee Dam (*)
TTITLE11=London Is Behind Me (*)
TTITLE12=Whoa Buck (Whoa Back Buck) (*)
TTITLE13=I'm Just A Rolling Stone (*)
EXTD=
EXTT0=
EXTT1=
EXTT2=
EXTT3=
EXTT4=
EXTT5=
EXTT6=
EXTT7=
EXTT8=
EXTT9=
EXTT10=
EXTT11=
EXTT12=
EXTT13=
PLAYORDER=
